<svg width="24" height="25" viewBox="0 0 24 25" fill="none" xmlns="http://www.w3.org/2000/svg">
<path d="M6.35355 9.14645C6.15829 8.95118 5.84171 8.95118 5.64645 9.14645C5.45118 9.34171 5.45118 9.65829 5.64645 9.85355L6.35355 9.14645ZM12 15.5L11.6464 15.8536C11.8417 16.0488 12.1583 16.0488 12.3536 15.8536L12 15.5ZM18.3536 9.85355C18.5488 9.65829 18.5488 9.34171 18.3536 9.14645C18.1583 8.95118 17.8417 8.95118 17.6464 9.14645L18.3536 9.85355ZM5.64645 9.85355L11.6464 15.8536L12.3536 15.1464L6.35355 9.14645L5.64645 9.85355ZM12.3536 15.8536L18.3536 9.85355L17.6464 9.14645L11.6464 15.1464L12.3536 15.8536Z" fill="#7E7E7E"/>
</svg>
