<svg width="17" height="16" viewBox="0 0 17 16" fill="none" xmlns="http://www.w3.org/2000/svg">
<path d="M6.50002 7.33338C6.50002 7.86382 6.71073 8.37253 7.08581 8.7476C7.46088 9.12267 7.96959 9.33338 8.50002 9.33338C9.03045 9.33338 9.53916 9.12267 9.91423 8.7476C10.2893 8.37253 10.5 7.86382 10.5 7.33338C10.5 6.80295 10.2893 6.29424 9.91423 5.91917C9.53916 5.5441 9.03045 5.33338 8.50002 5.33338C7.96959 5.33338 7.46088 5.5441 7.08581 5.91917C6.71073 6.29424 6.50002 6.80295 6.50002 7.33338Z" stroke="black" stroke-linecap="round" stroke-linejoin="round"/>
<path d="M12.2714 11.1047L9.44269 13.9334C9.19268 14.1831 8.85375 14.3234 8.50036 14.3234C8.14697 14.3234 7.80803 14.1831 7.55802 13.9334L4.72869 11.1047C3.98284 10.3588 3.47491 9.40852 3.26915 8.37396C3.06338 7.3394 3.16902 6.26706 3.57269 5.29254C3.97637 4.31801 4.65995 3.48508 5.53701 2.89905C6.41407 2.31303 7.4452 2.00024 8.50002 2.00024C9.55485 2.00024 10.586 2.31303 11.463 2.89905C12.3401 3.48508 13.0237 4.31801 13.4274 5.29254C13.831 6.26706 13.9367 7.3394 13.7309 8.37396C13.5251 9.40852 13.0172 10.3588 12.2714 11.1047Z" stroke="black" stroke-linecap="round" stroke-linejoin="round"/>
</svg>
