<svg width="33" height="32" viewBox="0 0 33 32" fill="none" xmlns="http://www.w3.org/2000/svg">
<path d="M11.3333 28V26.6667C11.3333 25.9594 11.6142 25.2811 12.1143 24.781C12.6144 24.281 13.2927 24 14 24H19.3333C20.0405 24 20.7188 24.281 21.2189 24.781C21.719 25.2811 22 25.9594 22 26.6667V28M23.3333 13.3333H26C26.7072 13.3333 27.3855 13.6143 27.8856 14.1144C28.3857 14.6145 28.6666 15.2928 28.6666 16V17.3333M4.66663 17.3333V16C4.66663 15.2928 4.94758 14.6145 5.44767 14.1144C5.94777 13.6143 6.62605 13.3333 7.33329 13.3333H9.99996M14 17.3333C14 18.0406 14.2809 18.7189 14.781 19.219C15.2811 19.719 15.9594 20 16.6666 20C17.3739 20 18.0521 19.719 18.5522 19.219C19.0523 18.7189 19.3333 18.0406 19.3333 17.3333C19.3333 16.6261 19.0523 15.9478 18.5522 15.4477C18.0521 14.9476 17.3739 14.6667 16.6666 14.6667C15.9594 14.6667 15.2811 14.9476 14.781 15.4477C14.2809 15.9478 14 16.6261 14 17.3333ZM20.6666 6.66667C20.6666 7.37391 20.9476 8.05219 21.4477 8.55229C21.9478 9.05238 22.626 9.33333 23.3333 9.33333C24.0405 9.33333 24.7188 9.05238 25.2189 8.55229C25.719 8.05219 26 7.37391 26 6.66667C26 5.95942 25.719 5.28115 25.2189 4.78105C24.7188 4.28095 24.0405 4 23.3333 4C22.626 4 21.9478 4.28095 21.4477 4.78105C20.9476 5.28115 20.6666 5.95942 20.6666 6.66667ZM7.33329 6.66667C7.33329 7.37391 7.61424 8.05219 8.11434 8.55229C8.61444 9.05238 9.29272 9.33333 9.99996 9.33333C10.7072 9.33333 11.3855 9.05238 11.8856 8.55229C12.3857 8.05219 12.6666 7.37391 12.6666 6.66667C12.6666 5.95942 12.3857 5.28115 11.8856 4.78105C11.3855 4.28095 10.7072 4 9.99996 4C9.29272 4 8.61444 4.28095 8.11434 4.78105C7.61424 5.28115 7.33329 5.95942 7.33329 6.66667Z" stroke="#0171E3" stroke-width="1.5" stroke-linecap="round" stroke-linejoin="round"/>
</svg>
