<?xml version="1.0" encoding="utf-8"?><svg xmlns="http://www.w3.org/2000/svg" xmlns:xlink="http://www.w3.org/1999/xlink"><symbol viewBox="0 0 32 32" id="calendar" xmlns="http://www.w3.org/2000/svg">
    <path d="M21.3334 4.00031V9.33364M10.6667 4.00031V9.33364M5.33337 14.667H26.6667M5.33337 9.33364C5.33337 8.62639 5.61433 7.94812 6.11442 7.44802C6.61452 6.94792 7.2928 6.66697 8.00004 6.66697H24C24.7073 6.66697 25.3856 6.94792 25.8857 7.44802C26.3858 7.94812 26.6667 8.62639 26.6667 9.33364V25.3336C26.6667 26.0409 26.3858 26.7192 25.8857 27.2193C25.3856 27.7194 24.7073 28.0003 24 28.0003H8.00004C7.2928 28.0003 6.61452 27.7194 6.11442 27.2193C5.61433 26.7192 5.33337 26.0409 5.33337 25.3336V9.33364ZM14.6667 21.3336C14.6667 21.6873 14.8072 22.0264 15.0572 22.2764C15.3073 22.5265 15.6464 22.667 16 22.667C16.3537 22.667 16.6928 22.5265 16.9428 22.2764C17.1929 22.0264 17.3334 21.6873 17.3334 21.3336C17.3334 20.98 17.1929 20.6409 16.9428 20.3908C16.6928 20.1408 16.3537 20.0003 16 20.0003C15.6464 20.0003 15.3073 20.1408 15.0572 20.3908C14.8072 20.6409 14.6667 20.98 14.6667 21.3336Z" stroke-width="1.5" stroke-linecap="round" stroke-linejoin="round"/>
</symbol><symbol viewBox="0 0 33 32" id="certificate" xmlns="http://www.w3.org/2000/svg">
    <path d="M17.6667 23.333V29.333L20.3334 27.333L23 29.333V23.333M13.6667 25.333H7.00004C6.2928 25.333 5.61452 25.052 5.11442 24.5519C4.61433 24.0518 4.33337 23.3736 4.33337 22.6663V9.33299C4.33337 7.86632 5.53337 6.66632 7.00004 6.66632H25.6667C26.374 6.66632 27.0522 6.94727 27.5523 7.44737C28.0524 7.94747 28.3334 8.62574 28.3334 9.33299V22.6663C28.3329 23.134 28.2095 23.5932 27.9754 23.9981C27.7414 24.403 27.405 24.7392 27 24.973M8.33337 11.9997H24.3334M8.33337 15.9997H12.3334M8.33337 19.9997H11M16.3334 19.9997C16.3334 21.0605 16.7548 22.0779 17.5049 22.8281C18.2551 23.5782 19.2725 23.9997 20.3334 23.9997C21.3942 23.9997 22.4117 23.5782 23.1618 22.8281C23.9119 22.0779 24.3334 21.0605 24.3334 19.9997C24.3334 18.9388 23.9119 17.9214 23.1618 17.1712C22.4117 16.4211 21.3942 15.9997 20.3334 15.9997C19.2725 15.9997 18.2551 16.4211 17.5049 17.1712C16.7548 17.9214 16.3334 18.9388 16.3334 19.9997Z" stroke-width="1.5" stroke-linecap="round" stroke-linejoin="round"/>
</symbol><symbol viewBox="0 0 24 25" id="chevron-down" xmlns="http://www.w3.org/2000/svg">
    <path d="M6.35355 9.14645C6.15829 8.95118 5.84171 8.95118 5.64645 9.14645C5.45118 9.34171 5.45118 9.65829 5.64645 9.85355L6.35355 9.14645ZM12 15.5L11.6464 15.8536C11.8417 16.0488 12.1583 16.0488 12.3536 15.8536L12 15.5ZM18.3536 9.85355C18.5488 9.65829 18.5488 9.34171 18.3536 9.14645C18.1583 8.95118 17.8417 8.95118 17.6464 9.14645L18.3536 9.85355ZM5.64645 9.85355L11.6464 15.8536L12.3536 15.1464L6.35355 9.14645L5.64645 9.85355ZM12.3536 15.8536L18.3536 9.85355L17.6464 9.14645L11.6464 15.1464L12.3536 15.8536Z"/>
</symbol><symbol viewBox="0 0 20 20" id="chevron-left" xmlns="http://www.w3.org/2000/svg">
    <path d="M12.5 15L7.5 10L12.5 5" stroke-width="1.25" stroke-linecap="round" stroke-linejoin="round"/>
</symbol><symbol viewBox="0 0 20 20" id="chevron-right" xmlns="http://www.w3.org/2000/svg">
    <path d="M7.49997 5L12.5 10L7.49997 15" stroke-width="1.25" stroke-linecap="round" stroke-linejoin="round"/>
</symbol><symbol viewBox="0 0 15 15" id="clock" xmlns="http://www.w3.org/2000/svg">
    <path d="M7.5 4.58342V7.50009M2.25 7.50009C2.25 8.18953 2.3858 8.87222 2.64963 9.50918C2.91347 10.1461 3.30018 10.7249 3.78769 11.2124C4.2752 11.6999 4.85395 12.0866 5.49091 12.3505C6.12787 12.6143 6.81056 12.7501 7.5 12.7501C8.18944 12.7501 8.87213 12.6143 9.50909 12.3505C10.146 12.0866 10.7248 11.6999 11.2123 11.2124C11.6998 10.7249 12.0865 10.1461 12.3504 9.50918C12.6142 8.87222 12.75 8.18953 12.75 7.50009C12.75 6.81065 12.6142 6.12796 12.3504 5.491C12.0865 4.85404 11.6998 4.27529 11.2123 3.78778C10.7248 3.30027 10.146 2.91356 9.50909 2.64972C8.87213 2.38589 8.18944 2.25009 7.5 2.25009C6.81056 2.25009 6.12787 2.38589 5.49091 2.64972C4.85395 2.91356 4.2752 3.30027 3.78769 3.78778C3.30018 4.27529 2.91347 4.85404 2.64963 5.491C2.3858 6.12796 2.25 6.81065 2.25 7.50009Z" stroke-width="1.16667" stroke-linecap="round" stroke-linejoin="round"/>
</symbol><symbol viewBox="0 0 33 32" id="clock-hour" xmlns="http://www.w3.org/2000/svg">
    <path d="M16.2501 9.33321V15.9999L18.9167 11.9999M4.25006 15.9999C4.25006 17.5757 4.56045 19.1362 5.16351 20.5921C5.76656 22.048 6.65048 23.3709 7.76478 24.4852C8.87908 25.5995 10.202 26.4834 11.6579 27.0864C13.1138 27.6895 14.6742 27.9999 16.2501 27.9999C17.8259 27.9999 19.3864 27.6895 20.8423 27.0864C22.2982 26.4834 23.621 25.5995 24.7353 24.4852C25.8496 23.3709 26.7336 22.048 27.3366 20.5921C27.9397 19.1362 28.2501 17.5757 28.2501 15.9999C28.2501 14.424 27.9397 12.8636 27.3366 11.4077C26.7336 9.95177 25.8496 8.6289 24.7353 7.5146C23.621 6.40029 22.2982 5.51638 20.8423 4.91332C19.3864 4.31027 17.8259 3.99988 16.2501 3.99988C14.6742 3.99988 13.1138 4.31027 11.6579 4.91332C10.202 5.51638 8.87908 6.40029 7.76478 7.5146C6.65048 8.6289 5.76656 9.95177 5.16351 11.4077C4.56045 12.8636 4.25006 14.424 4.25006 15.9999Z" stroke-width="1.7" stroke-linecap="round" stroke-linejoin="round"/>
</symbol><symbol viewBox="0 0 24 24" id="close" xmlns="http://www.w3.org/2000/svg">
    <path d="M6.39989 18.308L5.69189 17.6L11.2919 12L5.69189 6.4L6.39989 5.692L11.9999 11.292L17.5999 5.692L18.3079 6.4L12.7079 12L18.3079 17.6L17.5999 18.308L11.9999 12.708L6.39989 18.308Z"/>
</symbol><symbol viewBox="0 0 260 260" id="favicon" xmlns="http://www.w3.org/2000/svg">
    <g clip-path="url(#iclip0_3844_211)">
        <rect width="260" height="260" rx="40"/>
        <rect x="16" y="44" width="227" height="173"/>
        <path d="M13 13H247C254.18 13 260 18.8204 260 26V234C260 241.18 254.18 247 247 247H13C5.82036 247 0 241.18 0 234V26C0 18.8204 5.82036 13 13 13ZM188.039 175.961L234 130L188.039 84.0381L169.654 102.423L197.231 130L169.654 157.577L188.039 175.961ZM62.7696 130L90.3467 102.423L71.9619 84.0381L26 130L71.9619 175.961L90.3467 157.577L62.7696 130ZM120.176 195L167.492 65H139.824L92.5076 195H120.176Z"/>
    </g>
    <defs>
        <clipPath id="iclip0_3844_211">
            <rect width="260" height="260" rx="40"/>
        </clipPath>
    </defs>
</symbol><symbol viewBox="0 0 17 16" id="geo-pin" xmlns="http://www.w3.org/2000/svg">
    <path d="M6.50002 7.33338C6.50002 7.86382 6.71073 8.37253 7.08581 8.7476C7.46088 9.12267 7.96959 9.33338 8.50002 9.33338C9.03045 9.33338 9.53916 9.12267 9.91423 8.7476C10.2893 8.37253 10.5 7.86382 10.5 7.33338C10.5 6.80295 10.2893 6.29424 9.91423 5.91917C9.53916 5.5441 9.03045 5.33338 8.50002 5.33338C7.96959 5.33338 7.46088 5.5441 7.08581 5.91917C6.71073 6.29424 6.50002 6.80295 6.50002 7.33338Z" stroke-linecap="round" stroke-linejoin="round"/>
    <path d="M12.2714 11.1047L9.44269 13.9334C9.19268 14.1831 8.85375 14.3234 8.50036 14.3234C8.14697 14.3234 7.80803 14.1831 7.55802 13.9334L4.72869 11.1047C3.98284 10.3588 3.47491 9.40852 3.26915 8.37396C3.06338 7.3394 3.16902 6.26706 3.57269 5.29254C3.97637 4.31801 4.65995 3.48508 5.53701 2.89905C6.41407 2.31303 7.4452 2.00024 8.50002 2.00024C9.55485 2.00024 10.586 2.31303 11.463 2.89905C12.3401 3.48508 13.0237 4.31801 13.4274 5.29254C13.831 6.26706 13.9367 7.3394 13.7309 8.37396C13.5251 9.40852 13.0172 10.3588 12.2714 11.1047Z" stroke-linecap="round" stroke-linejoin="round"/>
</symbol><symbol viewBox="0 0 33 32" id="mail" xmlns="http://www.w3.org/2000/svg">
    <path d="M4.5 9.33268C4.5 8.62544 4.78095 7.94716 5.28105 7.44706C5.78115 6.94697 6.45942 6.66602 7.16667 6.66602H25.8333C26.5406 6.66602 27.2189 6.94697 27.719 7.44706C28.219 7.94716 28.5 8.62544 28.5 9.33268M4.5 9.33268V22.666C4.5 23.3733 4.78095 24.0515 5.28105 24.5516C5.78115 25.0517 6.45942 25.3327 7.16667 25.3327H25.8333C26.5406 25.3327 27.2189 25.0517 27.719 24.5516C28.219 24.0515 28.5 23.3733 28.5 22.666V9.33268M4.5 9.33268L16.5 17.3327L28.5 9.33268" stroke-width="1.7" stroke-linecap="round" stroke-linejoin="round"/>
</symbol><symbol viewBox="0 0 34 34" id="map-pin" xmlns="http://www.w3.org/2000/svg">
    <path d="M12.7498 15.5836C12.7498 16.7108 13.1976 17.7918 13.9946 18.5888C14.7917 19.3859 15.8727 19.8336 16.9998 19.8336C18.127 19.8336 19.208 19.3859 20.005 18.5888C20.8021 17.7918 21.2498 16.7108 21.2498 15.5836C21.2498 14.4564 20.8021 13.3754 20.005 12.5784C19.208 11.7814 18.127 11.3336 16.9998 11.3336C15.8727 11.3336 14.7917 11.7814 13.9946 12.5784C13.1976 13.3754 12.7498 14.4564 12.7498 15.5836Z" stroke-width="1.51111" stroke-linecap="round" stroke-linejoin="round"/>
    <path d="M25.0139 23.598L19.003 29.6089C18.4717 30.1396 17.7515 30.4378 17.0006 30.4378C16.2496 30.4378 15.5294 30.1396 14.9981 29.6089L8.98576 23.598C7.40082 22.013 6.32148 19.9936 5.88423 17.7951C5.44698 15.5967 5.67145 13.318 6.52926 11.2471C7.38707 9.17623 8.8397 7.40624 10.7034 6.16095C12.5672 4.91565 14.7583 4.25098 16.9998 4.25098C19.2413 4.25098 21.4325 4.91565 23.2962 6.16095C25.16 7.40624 26.6126 9.17623 27.4704 11.2471C28.3282 13.318 28.5527 15.5967 28.1155 17.7951C27.6782 19.9936 26.5989 22.013 25.0139 23.598Z" stroke-width="1.51111" stroke-linecap="round" stroke-linejoin="round"/>
</symbol><symbol viewBox="0 0 15 16" id="phone" xmlns="http://www.w3.org/2000/svg">
    <path d="M3.125 3H5.625L6.875 6.125L5.3125 7.0625C5.98185 8.41971 7.08029 9.51815 8.4375 10.1875L9.375 8.625L12.5 9.875V12.375C12.5 12.7065 12.3683 13.0245 12.1339 13.2589C11.8995 13.4933 11.5815 13.625 11.25 13.625C8.81204 13.4768 6.5126 12.4416 4.78552 10.7145C3.05844 8.9874 2.02316 6.68796 1.875 4.25C1.875 3.91848 2.0067 3.60054 2.24112 3.36612C2.47554 3.1317 2.79348 3 3.125 3Z" stroke-width="0.9375" stroke-linecap="round" stroke-linejoin="round"/>
</symbol><symbol viewBox="0 0 25 24" id="player-play" xmlns="http://www.w3.org/2000/svg">
    <path d="M6.5 4.00004V20C6.49995 20.178 6.54737 20.3527 6.63738 20.5062C6.72739 20.6597 6.85672 20.7864 7.01202 20.8732C7.16733 20.96 7.34299 21.0038 7.52088 21.0001C7.69878 20.9964 7.87245 20.9453 8.024 20.852L21.024 12.852C21.1696 12.7626 21.2898 12.6373 21.3733 12.4881C21.4567 12.339 21.5005 12.1709 21.5005 12C21.5005 11.8291 21.4567 11.6611 21.3733 11.512C21.2898 11.3628 21.1696 11.2375 21.024 11.148L8.024 3.14804C7.87245 3.0548 7.69878 3.00369 7.52088 2.99997C7.34299 2.99626 7.16733 3.04007 7.01202 3.1269C6.85672 3.21372 6.72739 3.34042 6.63738 3.4939C6.54737 3.64739 6.49995 3.82211 6.5 4.00004Z"/>
</symbol><symbol viewBox="0 0 104 19" id="stars" xmlns="http://www.w3.org/2000/svg">
    <path d="M7.65191 6.58782L3.66441 7.16594L3.59379 7.18032C3.48687 7.2087 3.38941 7.26495 3.31134 7.34332C3.23328 7.42169 3.17741 7.51937 3.14945 7.6264C3.12149 7.73342 3.12243 7.84595 3.15218 7.95249C3.18193 8.05903 3.23942 8.15576 3.31879 8.23282L6.20754 11.0447L5.52629 15.0166L5.51816 15.0853C5.51162 15.1959 5.53458 15.3062 5.58469 15.405C5.63481 15.5038 5.71028 15.5875 5.80337 15.6475C5.89647 15.7075 6.00384 15.7417 6.1145 15.7466C6.22517 15.7515 6.33514 15.7269 6.43316 15.6753L9.99941 13.8003L13.5575 15.6753L13.62 15.7041C13.7232 15.7447 13.8353 15.7572 13.9449 15.7402C14.0545 15.7232 14.1575 15.6773 14.2435 15.6074C14.3295 15.5374 14.3954 15.4458 14.4343 15.342C14.4732 15.2381 14.4838 15.1258 14.465 15.0166L13.7832 11.0447L16.6732 8.23219L16.7219 8.17907C16.7915 8.0933 16.8372 7.9906 16.8542 7.88144C16.8713 7.77228 16.8591 7.66055 16.8188 7.55765C16.7786 7.45474 16.7119 7.36434 16.6253 7.29564C16.5388 7.22694 16.4356 7.1824 16.3263 7.16657L12.3388 6.58782L10.5563 2.97532C10.5047 2.87065 10.4249 2.78251 10.3258 2.72088C10.2267 2.65925 10.1123 2.62659 9.99566 2.62659C9.87898 2.62659 9.76462 2.65925 9.66554 2.72088C9.56646 2.78251 9.48662 2.87065 9.43504 2.97532L7.65191 6.58782Z"/>
    <path d="M28.6519 6.58782L24.6644 7.16594L24.5937 7.18032C24.4868 7.2087 24.3893 7.26495 24.3113 7.34332C24.2332 7.42169 24.1774 7.51937 24.1494 7.6264C24.1214 7.73342 24.1224 7.84595 24.1521 7.95249C24.1819 8.05903 24.2394 8.15576 24.3187 8.23282L27.2075 11.0447L26.5262 15.0166L26.5181 15.0853C26.5116 15.1959 26.5345 15.3062 26.5846 15.405C26.6347 15.5038 26.7102 15.5875 26.8033 15.6475C26.8964 15.7075 27.0038 15.7417 27.1144 15.7466C27.2251 15.7515 27.3351 15.7269 27.4331 15.6753L30.9994 13.8003L34.5575 15.6753L34.62 15.7041C34.7231 15.7447 34.8353 15.7572 34.9448 15.7402C35.0544 15.7232 35.1575 15.6773 35.2435 15.6074C35.3295 15.5374 35.3953 15.4458 35.4342 15.342C35.4732 15.2381 35.4838 15.1258 35.465 15.0166L34.7831 11.0447L37.6731 8.23219L37.7218 8.17907C37.7915 8.0933 37.8371 7.9906 37.8542 7.88144C37.8712 7.77228 37.859 7.66055 37.8188 7.55765C37.7786 7.45474 37.7118 7.36434 37.6253 7.29564C37.5388 7.22694 37.4356 7.1824 37.3262 7.16657L33.3387 6.58782L31.5562 2.97532C31.5046 2.87065 31.4248 2.78251 31.3257 2.72088C31.2266 2.65925 31.1123 2.62659 30.9956 2.62659C30.8789 2.62659 30.7646 2.65925 30.6655 2.72088C30.5664 2.78251 30.4866 2.87065 30.435 2.97532L28.6519 6.58782Z"/>
    <path d="M49.6519 6.58782L45.6644 7.16594L45.5937 7.18032C45.4868 7.2087 45.3893 7.26495 45.3113 7.34332C45.2332 7.42169 45.1774 7.51937 45.1494 7.6264C45.1214 7.73342 45.1224 7.84595 45.1521 7.95249C45.1819 8.05903 45.2394 8.15576 45.3187 8.23282L48.2075 11.0447L47.5262 15.0166L47.5181 15.0853C47.5116 15.1959 47.5345 15.3062 47.5846 15.405C47.6347 15.5038 47.7102 15.5875 47.8033 15.6475C47.8964 15.7075 48.0038 15.7417 48.1144 15.7466C48.2251 15.7515 48.3351 15.7269 48.4331 15.6753L51.9994 13.8003L55.5575 15.6753L55.62 15.7041C55.7231 15.7447 55.8353 15.7572 55.9448 15.7402C56.0544 15.7232 56.1575 15.6773 56.2435 15.6074C56.3295 15.5374 56.3953 15.4458 56.4342 15.342C56.4732 15.2381 56.4838 15.1258 56.465 15.0166L55.7831 11.0447L58.6731 8.23219L58.7218 8.17907C58.7915 8.0933 58.8371 7.9906 58.8542 7.88144C58.8712 7.77228 58.859 7.66055 58.8188 7.55765C58.7786 7.45474 58.7118 7.36434 58.6253 7.29564C58.5388 7.22694 58.4356 7.1824 58.3262 7.16657L54.3387 6.58782L52.5562 2.97532C52.5046 2.87065 52.4248 2.78251 52.3257 2.72088C52.2266 2.65925 52.1123 2.62659 51.9956 2.62659C51.8789 2.62659 51.7646 2.65925 51.6655 2.72088C51.5664 2.78251 51.4866 2.87065 51.435 2.97532L49.6519 6.58782Z"/>
    <path d="M70.6519 6.58782L66.6644 7.16594L66.5937 7.18032C66.4868 7.2087 66.3893 7.26495 66.3113 7.34332C66.2332 7.42169 66.1774 7.51937 66.1494 7.6264C66.1214 7.73342 66.1224 7.84595 66.1521 7.95249C66.1819 8.05903 66.2394 8.15576 66.3187 8.23282L69.2075 11.0447L68.5262 15.0166L68.5181 15.0853C68.5116 15.1959 68.5345 15.3062 68.5846 15.405C68.6347 15.5038 68.7102 15.5875 68.8033 15.6475C68.8964 15.7075 69.0038 15.7417 69.1144 15.7466C69.2251 15.7515 69.3351 15.7269 69.4331 15.6753L72.9994 13.8003L76.5575 15.6753L76.62 15.7041C76.7231 15.7447 76.8353 15.7572 76.9448 15.7402C77.0544 15.7232 77.1575 15.6773 77.2435 15.6074C77.3295 15.5374 77.3953 15.4458 77.4342 15.342C77.4732 15.2381 77.4838 15.1258 77.465 15.0166L76.7831 11.0447L79.6731 8.23219L79.7218 8.17907C79.7915 8.0933 79.8371 7.9906 79.8542 7.88144C79.8712 7.77228 79.859 7.66055 79.8188 7.55765C79.7786 7.45474 79.7118 7.36434 79.6253 7.29564C79.5388 7.22694 79.4356 7.1824 79.3262 7.16657L75.3387 6.58782L73.5562 2.97532C73.5046 2.87065 73.4248 2.78251 73.3257 2.72088C73.2266 2.65925 73.1123 2.62659 72.9956 2.62659C72.8789 2.62659 72.7646 2.65925 72.6655 2.72088C72.5664 2.78251 72.4866 2.87065 72.435 2.97532L70.6519 6.58782Z"/>
    <path d="M91.6519 6.58782L87.6644 7.16594L87.5937 7.18032C87.4868 7.2087 87.3893 7.26495 87.3113 7.34332C87.2332 7.42169 87.1774 7.51937 87.1494 7.6264C87.1214 7.73342 87.1224 7.84595 87.1521 7.95249C87.1819 8.05903 87.2394 8.15576 87.3187 8.23282L90.2075 11.0447L89.5262 15.0166L89.5181 15.0853C89.5116 15.1959 89.5345 15.3062 89.5846 15.405C89.6347 15.5038 89.7102 15.5875 89.8033 15.6475C89.8964 15.7075 90.0038 15.7417 90.1144 15.7466C90.2251 15.7515 90.3351 15.7269 90.4331 15.6753L93.9994 13.8003L97.5575 15.6753L97.62 15.7041C97.7231 15.7447 97.8353 15.7572 97.9448 15.7402C98.0544 15.7232 98.1575 15.6773 98.2435 15.6074C98.3295 15.5374 98.3953 15.4458 98.4342 15.342C98.4732 15.2381 98.4838 15.1258 98.465 15.0166L97.7831 11.0447L100.673 8.23219L100.722 8.17907C100.791 8.0933 100.837 7.9906 100.854 7.88144C100.871 7.77228 100.859 7.66055 100.819 7.55765C100.779 7.45474 100.712 7.36434 100.625 7.29564C100.539 7.22694 100.436 7.1824 100.326 7.16657L96.3387 6.58782L94.5562 2.97532C94.5046 2.87065 94.4248 2.78251 94.3257 2.72088C94.2266 2.65925 94.1123 2.62659 93.9956 2.62659C93.8789 2.62659 93.7646 2.65925 93.6655 2.72088C93.5664 2.78251 93.4866 2.87065 93.435 2.97532L91.6519 6.58782Z"/>
</symbol><symbol viewBox="0 0 33 32" id="users-group" xmlns="http://www.w3.org/2000/svg">
    <path d="M11.3333 28V26.6667C11.3333 25.9594 11.6142 25.2811 12.1143 24.781C12.6144 24.281 13.2927 24 14 24H19.3333C20.0405 24 20.7188 24.281 21.2189 24.781C21.719 25.2811 22 25.9594 22 26.6667V28M23.3333 13.3333H26C26.7072 13.3333 27.3855 13.6143 27.8856 14.1144C28.3857 14.6145 28.6666 15.2928 28.6666 16V17.3333M4.66663 17.3333V16C4.66663 15.2928 4.94758 14.6145 5.44767 14.1144C5.94777 13.6143 6.62605 13.3333 7.33329 13.3333H9.99996M14 17.3333C14 18.0406 14.2809 18.7189 14.781 19.219C15.2811 19.719 15.9594 20 16.6666 20C17.3739 20 18.0521 19.719 18.5522 19.219C19.0523 18.7189 19.3333 18.0406 19.3333 17.3333C19.3333 16.6261 19.0523 15.9478 18.5522 15.4477C18.0521 14.9476 17.3739 14.6667 16.6666 14.6667C15.9594 14.6667 15.2811 14.9476 14.781 15.4477C14.2809 15.9478 14 16.6261 14 17.3333ZM20.6666 6.66667C20.6666 7.37391 20.9476 8.05219 21.4477 8.55229C21.9478 9.05238 22.626 9.33333 23.3333 9.33333C24.0405 9.33333 24.7188 9.05238 25.2189 8.55229C25.719 8.05219 26 7.37391 26 6.66667C26 5.95942 25.719 5.28115 25.2189 4.78105C24.7188 4.28095 24.0405 4 23.3333 4C22.626 4 21.9478 4.28095 21.4477 4.78105C20.9476 5.28115 20.6666 5.95942 20.6666 6.66667ZM7.33329 6.66667C7.33329 7.37391 7.61424 8.05219 8.11434 8.55229C8.61444 9.05238 9.29272 9.33333 9.99996 9.33333C10.7072 9.33333 11.3855 9.05238 11.8856 8.55229C12.3857 8.05219 12.6666 7.37391 12.6666 6.66667C12.6666 5.95942 12.3857 5.28115 11.8856 4.78105C11.3855 4.28095 10.7072 4 9.99996 4C9.29272 4 8.61444 4.28095 8.11434 4.78105C7.61424 5.28115 7.33329 5.95942 7.33329 6.66667Z" stroke-width="1.5" stroke-linecap="round" stroke-linejoin="round"/>
</symbol></svg>