<?xml version="1.0" encoding="utf-8"?><svg xmlns="http://www.w3.org/2000/svg" xmlns:xlink="http://www.w3.org/1999/xlink"><symbol viewBox="0 0 15 15" id="clock" xmlns="http://www.w3.org/2000/svg">
    <path d="M7.5 4.58342V7.50009M2.25 7.50009C2.25 8.18953 2.3858 8.87222 2.64963 9.50918C2.91347 10.1461 3.30018 10.7249 3.78769 11.2124C4.2752 11.6999 4.85395 12.0866 5.49091 12.3505C6.12787 12.6143 6.81056 12.7501 7.5 12.7501C8.18944 12.7501 8.87213 12.6143 9.50909 12.3505C10.146 12.0866 10.7248 11.6999 11.2123 11.2124C11.6998 10.7249 12.0865 10.1461 12.3504 9.50918C12.6142 8.87222 12.75 8.18953 12.75 7.50009C12.75 6.81065 12.6142 6.12796 12.3504 5.491C12.0865 4.85404 11.6998 4.27529 11.2123 3.78778C10.7248 3.30027 10.146 2.91356 9.50909 2.64972C8.87213 2.38589 8.18944 2.25009 7.5 2.25009C6.81056 2.25009 6.12787 2.38589 5.49091 2.64972C4.85395 2.91356 4.2752 3.30027 3.78769 3.78778C3.30018 4.27529 2.91347 4.85404 2.64963 5.491C2.3858 6.12796 2.25 6.81065 2.25 7.50009Z" stroke-width="1.16667" stroke-linecap="round" stroke-linejoin="round"/>
</symbol><symbol viewBox="0 0 17 16" id="geo-pin" xmlns="http://www.w3.org/2000/svg">
    <path d="M6.50002 7.33338C6.50002 7.86382 6.71073 8.37253 7.08581 8.7476C7.46088 9.12267 7.96959 9.33338 8.50002 9.33338C9.03045 9.33338 9.53916 9.12267 9.91423 8.7476C10.2893 8.37253 10.5 7.86382 10.5 7.33338C10.5 6.80295 10.2893 6.29424 9.91423 5.91917C9.53916 5.5441 9.03045 5.33338 8.50002 5.33338C7.96959 5.33338 7.46088 5.5441 7.08581 5.91917C6.71073 6.29424 6.50002 6.80295 6.50002 7.33338Z" stroke-linecap="round" stroke-linejoin="round"/>
    <path d="M12.2714 11.1047L9.44269 13.9334C9.19268 14.1831 8.85375 14.3234 8.50036 14.3234C8.14697 14.3234 7.80803 14.1831 7.55802 13.9334L4.72869 11.1047C3.98284 10.3588 3.47491 9.40852 3.26915 8.37396C3.06338 7.3394 3.16902 6.26706 3.57269 5.29254C3.97637 4.31801 4.65995 3.48508 5.53701 2.89905C6.41407 2.31303 7.4452 2.00024 8.50002 2.00024C9.55485 2.00024 10.586 2.31303 11.463 2.89905C12.3401 3.48508 13.0237 4.31801 13.4274 5.29254C13.831 6.26706 13.9367 7.3394 13.7309 8.37396C13.5251 9.40852 13.0172 10.3588 12.2714 11.1047Z" stroke-linecap="round" stroke-linejoin="round"/>
</symbol><symbol viewBox="0 0 15 16" id="phone" xmlns="http://www.w3.org/2000/svg">
    <path d="M3.125 3H5.625L6.875 6.125L5.3125 7.0625C5.98185 8.41971 7.08029 9.51815 8.4375 10.1875L9.375 8.625L12.5 9.875V12.375C12.5 12.7065 12.3683 13.0245 12.1339 13.2589C11.8995 13.4933 11.5815 13.625 11.25 13.625C8.81204 13.4768 6.5126 12.4416 4.78552 10.7145C3.05844 8.9874 2.02316 6.68796 1.875 4.25C1.875 3.91848 2.0067 3.60054 2.24112 3.36612C2.47554 3.1317 2.79348 3 3.125 3Z" stroke-width="0.9375" stroke-linecap="round" stroke-linejoin="round"/>
</symbol><symbol viewBox="0 0 25 24" id="player-play" xmlns="http://www.w3.org/2000/svg">
    <path d="M6.5 4.00004V20C6.49995 20.178 6.54737 20.3527 6.63738 20.5062C6.72739 20.6597 6.85672 20.7864 7.01202 20.8732C7.16733 20.96 7.34299 21.0038 7.52088 21.0001C7.69878 20.9964 7.87245 20.9453 8.024 20.852L21.024 12.852C21.1696 12.7626 21.2898 12.6373 21.3733 12.4881C21.4567 12.339 21.5005 12.1709 21.5005 12C21.5005 11.8291 21.4567 11.6611 21.3733 11.512C21.2898 11.3628 21.1696 11.2375 21.024 11.148L8.024 3.14804C7.87245 3.0548 7.69878 3.00369 7.52088 2.99997C7.34299 2.99626 7.16733 3.04007 7.01202 3.1269C6.85672 3.21372 6.72739 3.34042 6.63738 3.4939C6.54737 3.64739 6.49995 3.82211 6.5 4.00004Z"/>
</symbol></svg>