<svg width="32" height="32" viewBox="0 0 32 32" fill="none" xmlns="http://www.w3.org/2000/svg">
<path d="M21.3334 4.00031V9.33364M10.6667 4.00031V9.33364M5.33337 14.667H26.6667M5.33337 9.33364C5.33337 8.62639 5.61433 7.94812 6.11442 7.44802C6.61452 6.94792 7.2928 6.66697 8.00004 6.66697H24C24.7073 6.66697 25.3856 6.94792 25.8857 7.44802C26.3858 7.94812 26.6667 8.62639 26.6667 9.33364V25.3336C26.6667 26.0409 26.3858 26.7192 25.8857 27.2193C25.3856 27.7194 24.7073 28.0003 24 28.0003H8.00004C7.2928 28.0003 6.61452 27.7194 6.11442 27.2193C5.61433 26.7192 5.33337 26.0409 5.33337 25.3336V9.33364ZM14.6667 21.3336C14.6667 21.6873 14.8072 22.0264 15.0572 22.2764C15.3073 22.5265 15.6464 22.667 16 22.667C16.3537 22.667 16.6928 22.5265 16.9428 22.2764C17.1929 22.0264 17.3334 21.6873 17.3334 21.3336C17.3334 20.98 17.1929 20.6409 16.9428 20.3908C16.6928 20.1408 16.3537 20.0003 16 20.0003C15.6464 20.0003 15.3073 20.1408 15.0572 20.3908C14.8072 20.6409 14.6667 20.98 14.6667 21.3336Z" stroke="#0171E3" stroke-width="1.5" stroke-linecap="round" stroke-linejoin="round"/>
</svg>
