<svg width="33" height="32" viewBox="0 0 33 32" fill="none" xmlns="http://www.w3.org/2000/svg">
<path d="M4.5 9.33268C4.5 8.62544 4.78095 7.94716 5.28105 7.44706C5.78115 6.94697 6.45942 6.66602 7.16667 6.66602H25.8333C26.5406 6.66602 27.2189 6.94697 27.719 7.44706C28.219 7.94716 28.5 8.62544 28.5 9.33268M4.5 9.33268V22.666C4.5 23.3733 4.78095 24.0515 5.28105 24.5516C5.78115 25.0517 6.45942 25.3327 7.16667 25.3327H25.8333C26.5406 25.3327 27.2189 25.0517 27.719 24.5516C28.219 24.0515 28.5 23.3733 28.5 22.666V9.33268M4.5 9.33268L16.5 17.3327L28.5 9.33268" stroke="#0171E3" stroke-width="1.7" stroke-linecap="round" stroke-linejoin="round"/>
</svg>
