<?xml version="1.0" encoding="utf-8"?><svg viewBox="0 0 260 260" xmlns="http://www.w3.org/2000/svg" xmlns:xlink="http://www.w3.org/1999/xlink"><style>:root>svg{display:none}:root>svg:target{display:block}</style><svg fill="none" viewBox="0 0 32 32" id="calendar" xmlns="http://www.w3.org/2000/svg">
    <path d="M21.333 4v5.334M10.667 4v5.334m-5.334 5.333h21.334M5.333 9.334A2.667 2.667 0 0 1 8 6.667h16a2.667 2.667 0 0 1 2.667 2.667v16A2.667 2.667 0 0 1 24 28H8a2.667 2.667 0 0 1-2.667-2.666v-16Zm9.334 12a1.333 1.333 0 1 0 2.666 0 1.333 1.333 0 0 0-2.666 0Z" stroke="#0171E3" stroke-width="1.5" stroke-linecap="round" stroke-linejoin="round"/>
</svg><svg fill="none" viewBox="0 0 33 32" id="certificate" xmlns="http://www.w3.org/2000/svg">
    <path d="M17.667 23.333v6l2.666-2 2.667 2v-6m-9.333 2H7a2.667 2.667 0 0 1-2.667-2.667V9.333c0-1.467 1.2-2.667 2.667-2.667h18.667a2.667 2.667 0 0 1 2.666 2.667v13.333A2.666 2.666 0 0 1 27 24.973M8.333 12h16m-16 4h4m-4 4H11m5.333 0a4 4 0 1 0 8 0 4 4 0 0 0-8 0Z" stroke="#0171E3" stroke-width="1.5" stroke-linecap="round" stroke-linejoin="round"/>
</svg><svg fill="none" viewBox="0 0 24 25" id="chevron-down" xmlns="http://www.w3.org/2000/svg">
    <path d="M6.354 9.146a.5.5 0 1 0-.708.708l.708-.708ZM12 15.5l-.354.354a.5.5 0 0 0 .708 0L12 15.5Zm6.354-5.646a.5.5 0 0 0-.708-.708l.708.708Zm-12.708 0 6 6 .708-.708-6-6-.708.708Zm6.708 6 6-6-.708-.708-6 6 .708.708Z" fill="#7E7E7E"/>
</svg><svg fill="none" viewBox="0 0 20 20" id="chevron-left" xmlns="http://www.w3.org/2000/svg">
    <path d="m12.5 15-5-5 5-5" stroke="#000" stroke-width="1.25" stroke-linecap="round" stroke-linejoin="round"/>
</svg><svg fill="none" viewBox="0 0 20 20" id="chevron-right" xmlns="http://www.w3.org/2000/svg">
    <path d="m7.5 5 5 5-5 5" stroke="#000" stroke-width="1.25" stroke-linecap="round" stroke-linejoin="round"/>
</svg><svg fill="none" viewBox="0 0 15 15" id="clock" xmlns="http://www.w3.org/2000/svg">
    <path d="M7.5 4.583V7.5m-5.25 0a5.25 5.25 0 1 0 10.5 0 5.25 5.25 0 0 0-10.5 0Z" stroke="#fff" stroke-width="1.167" stroke-linecap="round" stroke-linejoin="round"/>
</svg><svg fill="none" viewBox="0 0 33 32" id="clock-hour" xmlns="http://www.w3.org/2000/svg">
    <path d="M16.25 9.333V16l2.667-4M4.25 16a12 12 0 1 0 24 0 12 12 0 0 0-24 0Z" stroke="#0171E3" stroke-width="1.7" stroke-linecap="round" stroke-linejoin="round"/>
</svg><svg fill="none" viewBox="0 0 24 24" id="close" xmlns="http://www.w3.org/2000/svg">
    <path d="m6.4 18.308-.708-.708 5.6-5.6-5.6-5.6.708-.708 5.6 5.6 5.6-5.6.708.708-5.6 5.6 5.6 5.6-.708.708-5.6-5.6-5.6 5.6Z" fill="#292929"/>
</svg><svg fill="none" viewBox="0 0 260 260" id="favicon" xmlns="http://www.w3.org/2000/svg">
    <g clip-path="url(#ia)">
        <rect width="260" height="260" rx="40" fill="#000"/>
        <path fill="#fff" d="M16 44h227v173H16z"/>
        <path d="M13 13h234c7.18 0 13 5.82 13 13v208c0 7.18-5.82 13-13 13H13c-7.18 0-13-5.82-13-13V26c0-7.18 5.82-13 13-13Zm175.039 162.961L234 130l-45.961-45.962-18.385 18.385L197.231 130l-27.577 27.577 18.385 18.384ZM62.769 130l27.578-27.577-18.385-18.385L26 130l45.962 45.961 18.385-18.384L62.77 130Zm57.407 65 47.316-130h-27.668L92.508 195h27.668Z" fill="#000"/>
    </g>
    <defs>
        <clipPath id="ia">
            <rect width="260" height="260" rx="40" fill="#fff"/>
        </clipPath>
    </defs>
</svg><svg fill="none" viewBox="0 0 17 16" id="geo-pin" xmlns="http://www.w3.org/2000/svg">
    <path d="M6.5 7.333a2 2 0 1 0 4 0 2 2 0 0 0-4 0Z" stroke="#000" stroke-linecap="round" stroke-linejoin="round"/>
    <path d="m12.271 11.105-2.828 2.828a1.334 1.334 0 0 1-1.885 0l-2.83-2.828a5.333 5.333 0 1 1 7.543 0Z" stroke="#000" stroke-linecap="round" stroke-linejoin="round"/>
</svg><svg fill="none" viewBox="0 0 33 32" id="mail" xmlns="http://www.w3.org/2000/svg">
    <path d="M4.5 9.333a2.667 2.667 0 0 1 2.667-2.667h18.666A2.667 2.667 0 0 1 28.5 9.333m-24 0v13.333a2.667 2.667 0 0 0 2.667 2.667h18.666a2.667 2.667 0 0 0 2.667-2.667V9.333m-24 0 12 8 12-8" stroke="#0171E3" stroke-width="1.7" stroke-linecap="round" stroke-linejoin="round"/>
</svg><svg fill="none" viewBox="0 0 34 34" id="map-pin" xmlns="http://www.w3.org/2000/svg">
    <path d="M12.75 15.584a4.25 4.25 0 1 0 8.5 0 4.25 4.25 0 0 0-8.5 0Z" stroke="#0171E3" stroke-width="1.511" stroke-linecap="round" stroke-linejoin="round"/>
    <path d="m25.014 23.598-6.011 6.01a2.834 2.834 0 0 1-4.005 0l-6.012-6.01a11.333 11.333 0 1 1 16.028 0Z" stroke="#0171E3" stroke-width="1.511" stroke-linecap="round" stroke-linejoin="round"/>
</svg><svg fill="none" viewBox="0 0 15 16" id="phone" xmlns="http://www.w3.org/2000/svg">
    <path d="M3.125 3h2.5l1.25 3.125-1.563.938a6.875 6.875 0 0 0 3.125 3.125l.938-1.563 3.125 1.25v2.5a1.25 1.25 0 0 1-1.25 1.25A10 10 0 0 1 1.875 4.25 1.25 1.25 0 0 1 3.125 3Z" stroke="#000" stroke-width=".938" stroke-linecap="round" stroke-linejoin="round"/>
</svg><svg fill="none" viewBox="0 0 25 24" id="player-play" xmlns="http://www.w3.org/2000/svg">
    <path d="M6.5 4v16a1 1 0 0 0 1.524.852l13-8a1 1 0 0 0 0-1.704l-13-8A1 1 0 0 0 6.5 4Z" fill="#fff"/>
</svg><svg fill="none" viewBox="0 0 32 32" id="purchase" xmlns="http://www.w3.org/2000/svg">
    <path fill-rule="evenodd" clip-rule="evenodd" d="M12.267 9.254a.873.873 0 0 1 .695.038.937.937 0 0 1 .465.541c.188.557.537 1.038.997 1.38.461.34 1.012.523 1.576.523.564 0 1.115-.183 1.576-.524.46-.34.809-.822.997-1.379.038-.12.099-.23.178-.325a.915.915 0 0 1 .285-.227.878.878 0 0 1 1.01.15.986.986 0 0 1 .241 1.036 4.74 4.74 0 0 1-1.662 2.297 4.412 4.412 0 0 1-2.625.873c-.94 0-1.857-.305-2.625-.873a4.74 4.74 0 0 1-1.662-2.297.99.99 0 0 1 .037-.726.925.925 0 0 1 .517-.487Zm4.17-2.273h-.875c-1.97 0-3.282.004-4.275.132-.944.122-1.379.333-1.684.598-.306.267-.585.673-.873 1.62-.303.998-.548 2.345-.912 4.37-.509 2.84-.85 4.768-.911 6.22-.058 1.4.166 1.997.481 2.393.315.397.833.737 2.16.934 1.376.206 3.252.21 6.015.21h.873c2.764 0 4.639-.004 6.015-.21 1.327-.197 1.844-.537 2.16-.934.315-.398.539-.992.48-2.393-.06-1.452-.402-3.38-.91-6.22-.364-2.025-.608-3.37-.912-4.37-.289-.947-.568-1.355-.873-1.62-.306-.264-.74-.476-1.684-.598-.994-.128-2.305-.132-4.275-.132ZM8.442 6.25c-1.346 1.168-1.701 3.147-2.41 7.103-.998 5.563-1.497 8.344-.043 10.177 1.455 1.831 4.16 1.831 9.574 1.831h.873c5.413 0 8.12 0 9.575-1.831 1.454-1.833.955-4.614-.043-10.178-.709-3.955-1.064-5.934-2.41-7.102-1.346-1.169-3.272-1.169-7.121-1.169h-.875c-3.849 0-5.774 0-7.12 1.169Z" fill="#2A2A2A"/>
</svg><svg fill="none" viewBox="0 0 104 19" id="stars" xmlns="http://www.w3.org/2000/svg">
    <path d="m7.652 6.588-3.988.578-.07.014a.625.625 0 0 0-.275 1.053l2.889 2.812-.682 3.972-.008.068a.625.625 0 0 0 .915.59L10 13.8l3.558 1.875.063.03a.626.626 0 0 0 .845-.688l-.682-3.972 2.89-2.813.049-.053a.625.625 0 0 0-.396-1.012l-3.987-.58-1.783-3.612a.625.625 0 0 0-1.121 0L7.652 6.588ZM28.652 6.588l-3.988.578-.07.014a.625.625 0 0 0-.275 1.053l2.889 2.812-.682 3.972-.008.068a.626.626 0 0 0 .915.59L31 13.8l3.558 1.875.063.03a.625.625 0 0 0 .845-.688l-.682-3.972 2.89-2.813.049-.053a.625.625 0 0 0-.396-1.012l-3.987-.58-1.783-3.612a.625.625 0 0 0-1.121 0l-1.783 3.613ZM49.652 6.588l-3.988.578-.07.014a.625.625 0 0 0-.275 1.053l2.889 2.812-.682 3.972-.008.068a.626.626 0 0 0 .915.59L52 13.8l3.558 1.875.063.03a.625.625 0 0 0 .845-.688l-.682-3.972 2.89-2.813.049-.053a.625.625 0 0 0-.396-1.012l-3.987-.58-1.783-3.612a.625.625 0 0 0-1.121 0l-1.783 3.613ZM70.652 6.588l-3.988.578-.07.014a.625.625 0 0 0-.275 1.053l2.888 2.812-.68 3.972-.009.068a.626.626 0 0 0 .915.59L73 13.8l3.559 1.875.062.03a.625.625 0 0 0 .845-.688l-.682-3.972 2.89-2.813.049-.053a.625.625 0 0 0-.396-1.012l-3.987-.58-1.783-3.612a.625.625 0 0 0-1.121 0l-1.783 3.613ZM91.652 6.588l-3.988.578-.07.014a.625.625 0 0 0-.275 1.053l2.888 2.812-.68 3.972-.009.068a.626.626 0 0 0 .915.59L94 13.8l3.559 1.875.062.03a.625.625 0 0 0 .845-.688l-.682-3.972 2.89-2.813.049-.053a.63.63 0 0 0 .097-.621.62.62 0 0 0-.493-.391l-3.987-.58-1.783-3.612a.625.625 0 0 0-1.121 0l-1.783 3.613Z" fill="#F5B309"/>
</svg><svg fill="none" viewBox="0 0 33 32" id="users-group" xmlns="http://www.w3.org/2000/svg">
    <path d="M11.333 28v-1.333A2.667 2.667 0 0 1 14 24h5.333A2.667 2.667 0 0 1 22 26.667V28m1.333-14.667H26A2.667 2.667 0 0 1 28.667 16v1.333m-24 0V16a2.667 2.667 0 0 1 2.666-2.667H10m4 4a2.667 2.667 0 1 0 5.333 0 2.667 2.667 0 0 0-5.333 0Zm6.667-10.666a2.667 2.667 0 1 0 5.333 0 2.667 2.667 0 0 0-5.333 0Zm-13.334 0a2.667 2.667 0 1 0 5.334 0 2.667 2.667 0 0 0-5.334 0Z" stroke="#0171E3" stroke-width="1.5" stroke-linecap="round" stroke-linejoin="round"/>
</svg></svg>