<svg width="33" height="32" viewBox="0 0 33 32" fill="none" xmlns="http://www.w3.org/2000/svg">
<path d="M17.6667 23.333V29.333L20.3334 27.333L23 29.333V23.333M13.6667 25.333H7.00004C6.2928 25.333 5.61452 25.052 5.11442 24.5519C4.61433 24.0518 4.33337 23.3736 4.33337 22.6663V9.33299C4.33337 7.86632 5.53337 6.66632 7.00004 6.66632H25.6667C26.374 6.66632 27.0522 6.94727 27.5523 7.44737C28.0524 7.94747 28.3334 8.62574 28.3334 9.33299V22.6663C28.3329 23.134 28.2095 23.5932 27.9754 23.9981C27.7414 24.403 27.405 24.7392 27 24.973M8.33337 11.9997H24.3334M8.33337 15.9997H12.3334M8.33337 19.9997H11M16.3334 19.9997C16.3334 21.0605 16.7548 22.0779 17.5049 22.8281C18.2551 23.5782 19.2725 23.9997 20.3334 23.9997C21.3942 23.9997 22.4117 23.5782 23.1618 22.8281C23.9119 22.0779 24.3334 21.0605 24.3334 19.9997C24.3334 18.9388 23.9119 17.9214 23.1618 17.1712C22.4117 16.4211 21.3942 15.9997 20.3334 15.9997C19.2725 15.9997 18.2551 16.4211 17.5049 17.1712C16.7548 17.9214 16.3334 18.9388 16.3334 19.9997Z" stroke="#0171E3" stroke-width="1.5" stroke-linecap="round" stroke-linejoin="round"/>
</svg>
