<svg width="15" height="15" viewBox="0 0 15 15" fill="none" xmlns="http://www.w3.org/2000/svg">
<path d="M7.5 4.58342V7.50009M2.25 7.50009C2.25 8.18953 2.3858 8.87222 2.64963 9.50918C2.91347 10.1461 3.30018 10.7249 3.78769 11.2124C4.2752 11.6999 4.85395 12.0866 5.49091 12.3505C6.12787 12.6143 6.81056 12.7501 7.5 12.7501C8.18944 12.7501 8.87213 12.6143 9.50909 12.3505C10.146 12.0866 10.7248 11.6999 11.2123 11.2124C11.6998 10.7249 12.0865 10.1461 12.3504 9.50918C12.6142 8.87222 12.75 8.18953 12.75 7.50009C12.75 6.81065 12.6142 6.12796 12.3504 5.491C12.0865 4.85404 11.6998 4.27529 11.2123 3.78778C10.7248 3.30027 10.146 2.91356 9.50909 2.64972C8.87213 2.38589 8.18944 2.25009 7.5 2.25009C6.81056 2.25009 6.12787 2.38589 5.49091 2.64972C4.85395 2.91356 4.2752 3.30027 3.78769 3.78778C3.30018 4.27529 2.91347 4.85404 2.64963 5.491C2.3858 6.12796 2.25 6.81065 2.25 7.50009Z" stroke="white" stroke-width="1.16667" stroke-linecap="round" stroke-linejoin="round"/>
</svg>
