<svg width="33" height="32" viewBox="0 0 33 32" fill="none" xmlns="http://www.w3.org/2000/svg">
<path d="M16.2501 9.33321V15.9999L18.9167 11.9999M4.25006 15.9999C4.25006 17.5757 4.56045 19.1362 5.16351 20.5921C5.76656 22.048 6.65048 23.3709 7.76478 24.4852C8.87908 25.5995 10.202 26.4834 11.6579 27.0864C13.1138 27.6895 14.6742 27.9999 16.2501 27.9999C17.8259 27.9999 19.3864 27.6895 20.8423 27.0864C22.2982 26.4834 23.621 25.5995 24.7353 24.4852C25.8496 23.3709 26.7336 22.048 27.3366 20.5921C27.9397 19.1362 28.2501 17.5757 28.2501 15.9999C28.2501 14.424 27.9397 12.8636 27.3366 11.4077C26.7336 9.95177 25.8496 8.6289 24.7353 7.5146C23.621 6.40029 22.2982 5.51638 20.8423 4.91332C19.3864 4.31027 17.8259 3.99988 16.2501 3.99988C14.6742 3.99988 13.1138 4.31027 11.6579 4.91332C10.202 5.51638 8.87908 6.40029 7.76478 7.5146C6.65048 8.6289 5.76656 9.95177 5.16351 11.4077C4.56045 12.8636 4.25006 14.424 4.25006 15.9999Z" stroke="#0171E3" stroke-width="1.7" stroke-linecap="round" stroke-linejoin="round"/>
</svg>
