<svg width="34" height="34" viewBox="0 0 34 34" fill="none" xmlns="http://www.w3.org/2000/svg">
<path d="M12.7498 15.5836C12.7498 16.7108 13.1976 17.7918 13.9946 18.5888C14.7917 19.3859 15.8727 19.8336 16.9998 19.8336C18.127 19.8336 19.208 19.3859 20.005 18.5888C20.8021 17.7918 21.2498 16.7108 21.2498 15.5836C21.2498 14.4564 20.8021 13.3754 20.005 12.5784C19.208 11.7814 18.127 11.3336 16.9998 11.3336C15.8727 11.3336 14.7917 11.7814 13.9946 12.5784C13.1976 13.3754 12.7498 14.4564 12.7498 15.5836Z" stroke="#0171E3" stroke-width="1.51111" stroke-linecap="round" stroke-linejoin="round"/>
<path d="M25.0139 23.598L19.003 29.6089C18.4717 30.1396 17.7515 30.4378 17.0006 30.4378C16.2496 30.4378 15.5294 30.1396 14.9981 29.6089L8.98576 23.598C7.40082 22.013 6.32148 19.9936 5.88423 17.7951C5.44698 15.5967 5.67145 13.318 6.52926 11.2471C7.38707 9.17623 8.8397 7.40624 10.7034 6.16095C12.5672 4.91565 14.7583 4.25098 16.9998 4.25098C19.2413 4.25098 21.4325 4.91565 23.2962 6.16095C25.16 7.40624 26.6126 9.17623 27.4704 11.2471C28.3282 13.318 28.5527 15.5967 28.1155 17.7951C27.6782 19.9936 26.5989 22.013 25.0139 23.598Z" stroke="#0171E3" stroke-width="1.51111" stroke-linecap="round" stroke-linejoin="round"/>
</svg>
