<svg width="32" height="32" viewBox="0 0 32 32" fill="none" xmlns="http://www.w3.org/2000/svg">
<path fill-rule="evenodd" clip-rule="evenodd" d="M12.2671 9.25396C12.4944 9.16995 12.7443 9.18378 12.9618 9.29241C13.1794 9.40103 13.3467 9.59556 13.4271 9.8332C13.6151 10.3897 13.9635 10.8715 14.4243 11.2123C14.885 11.5531 15.4356 11.7361 16 11.7361C16.5644 11.7361 17.1149 11.5531 17.5757 11.2123C18.0364 10.8715 18.3848 10.3897 18.5728 9.8332C18.6111 9.7136 18.6719 9.60317 18.7514 9.50836C18.831 9.41354 18.9278 9.33624 19.0363 9.28094C19.1447 9.22565 19.2626 9.19348 19.383 9.18631C19.5035 9.17913 19.6241 9.1971 19.7378 9.23915C19.8516 9.28121 19.9562 9.34651 20.0455 9.43126C20.1349 9.51601 20.2072 9.61851 20.2583 9.73279C20.3094 9.84707 20.3382 9.97083 20.3431 10.0969C20.348 10.2229 20.3288 10.3487 20.2868 10.467C19.9734 11.3939 19.3928 12.1965 18.6251 12.7642C17.8574 13.3318 16.9402 13.6366 16 13.6366C15.0597 13.6366 14.1425 13.3318 13.3748 12.7642C12.6071 12.1965 12.0265 11.3939 11.7131 10.467C11.6328 10.2293 11.646 9.96798 11.7499 9.74051C11.8538 9.51304 12.0398 9.33802 12.2671 9.25396ZM16.4369 6.98133H15.5618C13.592 6.98133 12.2804 6.98513 11.2865 7.11315C10.3434 7.23483 9.90823 7.4465 9.60277 7.71141C9.2973 7.97758 9.0185 8.38445 8.73001 9.33127C8.42697 10.3288 8.18211 11.6761 7.81846 13.7016C7.30936 16.5408 6.96753 18.4687 6.90692 19.9212C6.84873 21.3218 7.07298 21.9175 7.38815 22.3143C7.70331 22.711 8.2209 23.0507 9.54822 23.2484C10.924 23.4538 12.8005 23.4588 15.563 23.4588H16.4357C19.1995 23.4588 21.0747 23.4538 22.4505 23.2484C23.7778 23.0507 24.2954 22.711 24.6106 22.3143C24.9257 21.9163 25.15 21.3218 25.0918 19.9212C25.0312 18.4687 24.6893 16.5408 24.1802 13.7016C23.8166 11.6761 23.5729 10.3301 23.2687 9.33127C22.9802 8.38445 22.7014 7.97632 22.3959 7.71141C22.0905 7.4465 21.6565 7.23483 20.7122 7.11315C19.7183 6.98513 18.4067 6.98133 16.4369 6.98133ZM8.44151 6.24871C7.09601 7.41735 6.74085 9.39592 6.03174 13.3518C5.03413 18.9148 4.53472 21.6957 5.98931 23.5285C7.44391 25.3601 10.1495 25.3601 15.563 25.3601H16.4357C21.8492 25.3601 24.556 25.3601 26.0106 23.5285C27.4652 21.6957 26.9658 18.9148 25.9682 13.3505C25.2591 9.39592 24.9039 7.41735 23.5572 6.24871C22.2117 5.08008 20.2856 5.08008 16.4369 5.08008H15.5618C11.7131 5.08008 9.78823 5.08008 8.44151 6.24871Z" fill="#2A2A2A"/>
</svg>
