<svg width="104" height="19" viewBox="0 0 104 19" fill="none" xmlns="http://www.w3.org/2000/svg">
<path d="M7.65191 6.58782L3.66441 7.16594L3.59379 7.18032C3.48687 7.2087 3.38941 7.26495 3.31134 7.34332C3.23328 7.42169 3.17741 7.51937 3.14945 7.6264C3.12149 7.73342 3.12243 7.84595 3.15218 7.95249C3.18193 8.05903 3.23942 8.15576 3.31879 8.23282L6.20754 11.0447L5.52629 15.0166L5.51816 15.0853C5.51162 15.1959 5.53458 15.3062 5.58469 15.405C5.63481 15.5038 5.71028 15.5875 5.80337 15.6475C5.89647 15.7075 6.00384 15.7417 6.1145 15.7466C6.22517 15.7515 6.33514 15.7269 6.43316 15.6753L9.99941 13.8003L13.5575 15.6753L13.62 15.7041C13.7232 15.7447 13.8353 15.7572 13.9449 15.7402C14.0545 15.7232 14.1575 15.6773 14.2435 15.6074C14.3295 15.5374 14.3954 15.4458 14.4343 15.342C14.4732 15.2381 14.4838 15.1258 14.465 15.0166L13.7832 11.0447L16.6732 8.23219L16.7219 8.17907C16.7915 8.0933 16.8372 7.9906 16.8542 7.88144C16.8713 7.77228 16.8591 7.66055 16.8188 7.55765C16.7786 7.45474 16.7119 7.36434 16.6253 7.29564C16.5388 7.22694 16.4356 7.1824 16.3263 7.16657L12.3388 6.58782L10.5563 2.97532C10.5047 2.87065 10.4249 2.78251 10.3258 2.72088C10.2267 2.65925 10.1123 2.62659 9.99566 2.62659C9.87898 2.62659 9.76462 2.65925 9.66554 2.72088C9.56646 2.78251 9.48662 2.87065 9.43504 2.97532L7.65191 6.58782Z" fill="#F5B309"/>
<path d="M28.6519 6.58782L24.6644 7.16594L24.5937 7.18032C24.4868 7.2087 24.3893 7.26495 24.3113 7.34332C24.2332 7.42169 24.1774 7.51937 24.1494 7.6264C24.1214 7.73342 24.1224 7.84595 24.1521 7.95249C24.1819 8.05903 24.2394 8.15576 24.3187 8.23282L27.2075 11.0447L26.5262 15.0166L26.5181 15.0853C26.5116 15.1959 26.5345 15.3062 26.5846 15.405C26.6347 15.5038 26.7102 15.5875 26.8033 15.6475C26.8964 15.7075 27.0038 15.7417 27.1144 15.7466C27.2251 15.7515 27.3351 15.7269 27.4331 15.6753L30.9994 13.8003L34.5575 15.6753L34.62 15.7041C34.7231 15.7447 34.8353 15.7572 34.9448 15.7402C35.0544 15.7232 35.1575 15.6773 35.2435 15.6074C35.3295 15.5374 35.3953 15.4458 35.4342 15.342C35.4732 15.2381 35.4838 15.1258 35.465 15.0166L34.7831 11.0447L37.6731 8.23219L37.7218 8.17907C37.7915 8.0933 37.8371 7.9906 37.8542 7.88144C37.8712 7.77228 37.859 7.66055 37.8188 7.55765C37.7786 7.45474 37.7118 7.36434 37.6253 7.29564C37.5388 7.22694 37.4356 7.1824 37.3262 7.16657L33.3387 6.58782L31.5562 2.97532C31.5046 2.87065 31.4248 2.78251 31.3257 2.72088C31.2266 2.65925 31.1123 2.62659 30.9956 2.62659C30.8789 2.62659 30.7646 2.65925 30.6655 2.72088C30.5664 2.78251 30.4866 2.87065 30.435 2.97532L28.6519 6.58782Z" fill="#F5B309"/>
<path d="M49.6519 6.58782L45.6644 7.16594L45.5937 7.18032C45.4868 7.2087 45.3893 7.26495 45.3113 7.34332C45.2332 7.42169 45.1774 7.51937 45.1494 7.6264C45.1214 7.73342 45.1224 7.84595 45.1521 7.95249C45.1819 8.05903 45.2394 8.15576 45.3187 8.23282L48.2075 11.0447L47.5262 15.0166L47.5181 15.0853C47.5116 15.1959 47.5345 15.3062 47.5846 15.405C47.6347 15.5038 47.7102 15.5875 47.8033 15.6475C47.8964 15.7075 48.0038 15.7417 48.1144 15.7466C48.2251 15.7515 48.3351 15.7269 48.4331 15.6753L51.9994 13.8003L55.5575 15.6753L55.62 15.7041C55.7231 15.7447 55.8353 15.7572 55.9448 15.7402C56.0544 15.7232 56.1575 15.6773 56.2435 15.6074C56.3295 15.5374 56.3953 15.4458 56.4342 15.342C56.4732 15.2381 56.4838 15.1258 56.465 15.0166L55.7831 11.0447L58.6731 8.23219L58.7218 8.17907C58.7915 8.0933 58.8371 7.9906 58.8542 7.88144C58.8712 7.77228 58.859 7.66055 58.8188 7.55765C58.7786 7.45474 58.7118 7.36434 58.6253 7.29564C58.5388 7.22694 58.4356 7.1824 58.3262 7.16657L54.3387 6.58782L52.5562 2.97532C52.5046 2.87065 52.4248 2.78251 52.3257 2.72088C52.2266 2.65925 52.1123 2.62659 51.9956 2.62659C51.8789 2.62659 51.7646 2.65925 51.6655 2.72088C51.5664 2.78251 51.4866 2.87065 51.435 2.97532L49.6519 6.58782Z" fill="#F5B309"/>
<path d="M70.6519 6.58782L66.6644 7.16594L66.5937 7.18032C66.4868 7.2087 66.3893 7.26495 66.3113 7.34332C66.2332 7.42169 66.1774 7.51937 66.1494 7.6264C66.1214 7.73342 66.1224 7.84595 66.1521 7.95249C66.1819 8.05903 66.2394 8.15576 66.3187 8.23282L69.2075 11.0447L68.5262 15.0166L68.5181 15.0853C68.5116 15.1959 68.5345 15.3062 68.5846 15.405C68.6347 15.5038 68.7102 15.5875 68.8033 15.6475C68.8964 15.7075 69.0038 15.7417 69.1144 15.7466C69.2251 15.7515 69.3351 15.7269 69.4331 15.6753L72.9994 13.8003L76.5575 15.6753L76.62 15.7041C76.7231 15.7447 76.8353 15.7572 76.9448 15.7402C77.0544 15.7232 77.1575 15.6773 77.2435 15.6074C77.3295 15.5374 77.3953 15.4458 77.4342 15.342C77.4732 15.2381 77.4838 15.1258 77.465 15.0166L76.7831 11.0447L79.6731 8.23219L79.7218 8.17907C79.7915 8.0933 79.8371 7.9906 79.8542 7.88144C79.8712 7.77228 79.859 7.66055 79.8188 7.55765C79.7786 7.45474 79.7118 7.36434 79.6253 7.29564C79.5388 7.22694 79.4356 7.1824 79.3262 7.16657L75.3387 6.58782L73.5562 2.97532C73.5046 2.87065 73.4248 2.78251 73.3257 2.72088C73.2266 2.65925 73.1123 2.62659 72.9956 2.62659C72.8789 2.62659 72.7646 2.65925 72.6655 2.72088C72.5664 2.78251 72.4866 2.87065 72.435 2.97532L70.6519 6.58782Z" fill="#F5B309"/>
<path d="M91.6519 6.58782L87.6644 7.16594L87.5937 7.18032C87.4868 7.2087 87.3893 7.26495 87.3113 7.34332C87.2332 7.42169 87.1774 7.51937 87.1494 7.6264C87.1214 7.73342 87.1224 7.84595 87.1521 7.95249C87.1819 8.05903 87.2394 8.15576 87.3187 8.23282L90.2075 11.0447L89.5262 15.0166L89.5181 15.0853C89.5116 15.1959 89.5345 15.3062 89.5846 15.405C89.6347 15.5038 89.7102 15.5875 89.8033 15.6475C89.8964 15.7075 90.0038 15.7417 90.1144 15.7466C90.2251 15.7515 90.3351 15.7269 90.4331 15.6753L93.9994 13.8003L97.5575 15.6753L97.62 15.7041C97.7231 15.7447 97.8353 15.7572 97.9448 15.7402C98.0544 15.7232 98.1575 15.6773 98.2435 15.6074C98.3295 15.5374 98.3953 15.4458 98.4342 15.342C98.4732 15.2381 98.4838 15.1258 98.465 15.0166L97.7831 11.0447L100.673 8.23219L100.722 8.17907C100.791 8.0933 100.837 7.9906 100.854 7.88144C100.871 7.77228 100.859 7.66055 100.819 7.55765C100.779 7.45474 100.712 7.36434 100.625 7.29564C100.539 7.22694 100.436 7.1824 100.326 7.16657L96.3387 6.58782L94.5562 2.97532C94.5046 2.87065 94.4248 2.78251 94.3257 2.72088C94.2266 2.65925 94.1123 2.62659 93.9956 2.62659C93.8789 2.62659 93.7646 2.65925 93.6655 2.72088C93.5664 2.78251 93.4866 2.87065 93.435 2.97532L91.6519 6.58782Z" fill="#F5B309"/>
</svg>
